<svg width="33" height="32" viewBox="0 0 33 32" fill="none" xmlns="http://www.w3.org/2000/svg">
<g clip-path="url(#clip0_243_753)">
<path d="M22.5 13C22.5 12.7348 22.6054 12.4804 22.7929 12.2929C22.9804 12.1054 23.2348 12 23.5 12H25.5C25.7652 12 26.0196 12.1054 26.2071 12.2929C26.3946 12.4804 26.5 12.7348 26.5 13V15C26.5 15.2652 26.3946 15.5196 26.2071 15.7071C26.0196 15.8946 25.7652 16 25.5 16H23.5C23.2348 16 22.9804 15.8946 22.7929 15.7071C22.6054 15.5196 22.5 15.2652 22.5 15V13ZM16.5 13C16.5 12.7348 16.6054 12.4804 16.7929 12.2929C16.9804 12.1054 17.2348 12 17.5 12H19.5C19.7652 12 20.0196 12.1054 20.2071 12.2929C20.3946 12.4804 20.5 12.7348 20.5 13V15C20.5 15.2652 20.3946 15.5196 20.2071 15.7071C20.0196 15.8946 19.7652 16 19.5 16H17.5C17.2348 16 16.9804 15.8946 16.7929 15.7071C16.6054 15.5196 16.5 15.2652 16.5 15V13ZM6.5 19C6.5 18.7348 6.60536 18.4804 6.79289 18.2929C6.98043 18.1054 7.23478 18 7.5 18H9.5C9.76522 18 10.0196 18.1054 10.2071 18.2929C10.3946 18.4804 10.5 18.7348 10.5 19V21C10.5 21.2652 10.3946 21.5196 10.2071 21.7071C10.0196 21.8946 9.76522 22 9.5 22H7.5C7.23478 22 6.98043 21.8946 6.79289 21.7071C6.60536 21.5196 6.5 21.2652 6.5 21V19ZM12.5 19C12.5 18.7348 12.6054 18.4804 12.7929 18.2929C12.9804 18.1054 13.2348 18 13.5 18H15.5C15.7652 18 16.0196 18.1054 16.2071 18.2929C16.3946 18.4804 16.5 18.7348 16.5 19V21C16.5 21.2652 16.3946 21.5196 16.2071 21.7071C16.0196 21.8946 15.7652 22 15.5 22H13.5C13.2348 22 12.9804 21.8946 12.7929 21.7071C12.6054 21.5196 12.5 21.2652 12.5 21V19Z" fill="black"/>
<path d="M7.5 0C7.76522 0 8.01957 0.105357 8.20711 0.292893C8.39464 0.48043 8.5 0.734784 8.5 1V2H24.5V1C24.5 0.734784 24.6054 0.48043 24.7929 0.292893C24.9804 0.105357 25.2348 0 25.5 0C25.7652 0 26.0196 0.105357 26.2071 0.292893C26.3946 0.48043 26.5 0.734784 26.5 1V2H28.5C29.5609 2 30.5783 2.42143 31.3284 3.17157C32.0786 3.92172 32.5 4.93913 32.5 6V28C32.5 29.0609 32.0786 30.0783 31.3284 30.8284C30.5783 31.5786 29.5609 32 28.5 32H4.5C3.43913 32 2.42172 31.5786 1.67157 30.8284C0.921427 30.0783 0.5 29.0609 0.5 28V6C0.5 4.93913 0.921427 3.92172 1.67157 3.17157C2.42172 2.42143 3.43913 2 4.5 2H6.5V1C6.5 0.734784 6.60536 0.48043 6.79289 0.292893C6.98043 0.105357 7.23478 0 7.5 0ZM2.5 8V28C2.5 28.5304 2.71071 29.0391 3.08579 29.4142C3.46086 29.7893 3.96957 30 4.5 30H28.5C29.0304 30 29.5391 29.7893 29.9142 29.4142C30.2893 29.0391 30.5 28.5304 30.5 28V8H2.5Z" fill="black"/>
</g>
<defs>
<clipPath id="clip0_243_753">
<rect width="32" height="32" fill="white" transform="translate(0.5)"/>
</clipPath>
</defs>
</svg>
