<svg width="20" height="21" viewBox="0 0 20 21" fill="none" xmlns="http://www.w3.org/2000/svg">
<g clip-path="url(#clip0_243_1224)">
<g filter="url(#filter0_d_243_1224)">
<path d="M2.68256 4.0675C2.62445 4.00939 2.57835 3.94041 2.5469 3.86448C2.51545 3.78856 2.49927 3.70718 2.49927 3.625C2.49927 3.54282 2.51545 3.46145 2.5469 3.38552C2.57835 3.3096 2.62445 3.24061 2.68256 3.1825C2.74067 3.12439 2.80965 3.0783 2.88558 3.04685C2.9615 3.0154 3.04288 2.99921 3.12506 2.99921C3.20724 2.99921 3.28861 3.0154 3.36454 3.04685C3.44046 3.0783 3.50945 3.12439 3.56756 3.1825L10.0001 9.61625L16.4326 3.1825C16.4907 3.12439 16.5597 3.0783 16.6356 3.04685C16.7115 3.0154 16.7929 2.99921 16.8751 2.99921C16.9572 2.99921 17.0386 3.0154 17.1145 3.04685C17.1905 3.0783 17.2594 3.12439 17.3176 3.1825C17.3757 3.24061 17.4218 3.3096 17.4532 3.38552C17.4847 3.46145 17.5008 3.54282 17.5008 3.625C17.5008 3.70718 17.4847 3.78856 17.4532 3.86448C17.4218 3.94041 17.3757 4.00939 17.3176 4.0675L10.8838 10.5L17.3176 16.9325C17.3757 16.9906 17.4218 17.0596 17.4532 17.1355C17.4847 17.2114 17.5008 17.2928 17.5008 17.375C17.5008 17.4572 17.4847 17.5386 17.4532 17.6145C17.4218 17.6904 17.3757 17.7594 17.3176 17.8175C17.2594 17.8756 17.1905 17.9217 17.1145 17.9532C17.0386 17.9846 16.9572 18.0008 16.8751 18.0008C16.7929 18.0008 16.7115 17.9846 16.6356 17.9532C16.5597 17.9217 16.4907 17.8756 16.4326 17.8175L10.0001 11.3838L3.56756 17.8175C3.50945 17.8756 3.44046 17.9217 3.36454 17.9532C3.28861 17.9846 3.20724 18.0008 3.12506 18.0008C3.04288 18.0008 2.9615 17.9846 2.88558 17.9532C2.80965 17.9217 2.74067 17.8756 2.68256 17.8175C2.62445 17.7594 2.57835 17.6904 2.5469 17.6145C2.51545 17.5386 2.49927 17.4572 2.49927 17.375C2.49927 17.2928 2.51545 17.2114 2.5469 17.1355C2.57835 17.0596 2.62445 16.9906 2.68256 16.9325L9.11631 10.5L2.68256 4.0675Z" fill="black"/>
</g>
</g>
<defs>
<filter id="filter0_d_243_1224" x="0.499268" y="2.99921" width="19.0016" height="19.0016" filterUnits="userSpaceOnUse" color-interpolation-filters="sRGB">
<feFlood flood-opacity="0" result="BackgroundImageFix"/>
<feColorMatrix in="SourceAlpha" type="matrix" values="0 0 0 0 0 0 0 0 0 0 0 0 0 0 0 0 0 0 127 0" result="hardAlpha"/>
<feOffset dy="2"/>
<feGaussianBlur stdDeviation="1"/>
<feComposite in2="hardAlpha" operator="out"/>
<feColorMatrix type="matrix" values="0 0 0 0 0 0 0 0 0 0 0 0 0 0 0 0 0 0 0.25 0"/>
<feBlend mode="normal" in2="BackgroundImageFix" result="effect1_dropShadow_243_1224"/>
<feBlend mode="normal" in="SourceGraphic" in2="effect1_dropShadow_243_1224" result="shape"/>
</filter>
<clipPath id="clip0_243_1224">
<rect width="20" height="20" fill="white" transform="translate(0 0.5)"/>
</clipPath>
</defs>
</svg>
