<svg width="21" height="21" viewBox="0 0 21 21" fill="none" xmlns="http://www.w3.org/2000/svg">
<g clip-path="url(#clip0_243_895)">
<g filter="url(#filter0_d_243_895)">
<path d="M3.28125 1.3125C2.93315 1.3125 2.59931 1.45078 2.35317 1.69692C2.10703 1.94306 1.96875 2.2769 1.96875 2.625V3.9375C1.96875 4.2856 2.10703 4.61944 2.35317 4.86558C2.59931 5.11172 2.93315 5.25 3.28125 5.25H3.9375V17.0625C3.9375 17.7587 4.21406 18.4264 4.70634 18.9187C5.19863 19.4109 5.86631 19.6875 6.5625 19.6875H14.4375C15.1337 19.6875 15.8014 19.4109 16.2937 18.9187C16.7859 18.4264 17.0625 17.7587 17.0625 17.0625V5.25H17.7188C18.0668 5.25 18.4007 5.11172 18.6468 4.86558C18.893 4.61944 19.0312 4.2856 19.0312 3.9375V2.625C19.0312 2.2769 18.893 1.94306 18.6468 1.69692C18.4007 1.45078 18.0668 1.3125 17.7188 1.3125H13.125C13.125 0.964403 12.9867 0.630564 12.7406 0.384422C12.4944 0.138281 12.1606 0 11.8125 0L9.1875 0C8.8394 0 8.50556 0.138281 8.25942 0.384422C8.01328 0.630564 7.875 0.964403 7.875 1.3125H3.28125ZM7.21875 6.5625C7.3928 6.5625 7.55972 6.63164 7.68279 6.75471C7.80586 6.87778 7.875 7.0447 7.875 7.21875V16.4062C7.875 16.5803 7.80586 16.7472 7.68279 16.8703C7.55972 16.9934 7.3928 17.0625 7.21875 17.0625C7.0447 17.0625 6.87778 16.9934 6.75471 16.8703C6.63164 16.7472 6.5625 16.5803 6.5625 16.4062V7.21875C6.5625 7.0447 6.63164 6.87778 6.75471 6.75471C6.87778 6.63164 7.0447 6.5625 7.21875 6.5625ZM10.5 6.5625C10.674 6.5625 10.841 6.63164 10.964 6.75471C11.0871 6.87778 11.1562 7.0447 11.1562 7.21875V16.4062C11.1562 16.5803 11.0871 16.7472 10.964 16.8703C10.841 16.9934 10.674 17.0625 10.5 17.0625C10.326 17.0625 10.159 16.9934 10.036 16.8703C9.91289 16.7472 9.84375 16.5803 9.84375 16.4062V7.21875C9.84375 7.0447 9.91289 6.87778 10.036 6.75471C10.159 6.63164 10.326 6.5625 10.5 6.5625ZM14.4375 7.21875V16.4062C14.4375 16.5803 14.3684 16.7472 14.2453 16.8703C14.1222 16.9934 13.9553 17.0625 13.7812 17.0625C13.6072 17.0625 13.4403 16.9934 13.3172 16.8703C13.1941 16.7472 13.125 16.5803 13.125 16.4062V7.21875C13.125 7.0447 13.1941 6.87778 13.3172 6.75471C13.4403 6.63164 13.6072 6.5625 13.7812 6.5625C13.9553 6.5625 14.1222 6.63164 14.2453 6.75471C14.3684 6.87778 14.4375 7.0447 14.4375 7.21875Z" fill="#B64747"/>
</g>
</g>
<defs>
<filter id="filter0_d_243_895" x="-2.03125" y="0" width="25.0625" height="27.6875" filterUnits="userSpaceOnUse" color-interpolation-filters="sRGB">
<feFlood flood-opacity="0" result="BackgroundImageFix"/>
<feColorMatrix in="SourceAlpha" type="matrix" values="0 0 0 0 0 0 0 0 0 0 0 0 0 0 0 0 0 0 127 0" result="hardAlpha"/>
<feOffset dy="4"/>
<feGaussianBlur stdDeviation="2"/>
<feComposite in2="hardAlpha" operator="out"/>
<feColorMatrix type="matrix" values="0 0 0 0 0 0 0 0 0 0 0 0 0 0 0 0 0 0 0.25 0"/>
<feBlend mode="normal" in2="BackgroundImageFix" result="effect1_dropShadow_243_895"/>
<feBlend mode="normal" in="SourceGraphic" in2="effect1_dropShadow_243_895" result="shape"/>
</filter>
<clipPath id="clip0_243_895">
<rect width="21" height="21" fill="white"/>
</clipPath>
</defs>
</svg>
