<svg width="4" height="15" viewBox="0 0 4 15" fill="none" xmlns="http://www.w3.org/2000/svg">
<path d="M0 13.1262C-7.82739e-09 12.8801 0.0517313 12.6364 0.152241 12.4091C0.25275 12.1817 0.40007 11.9752 0.585787 11.8012C0.771504 11.6272 0.991982 11.4891 1.23463 11.395C1.47728 11.3008 1.73736 11.2523 2 11.2523C2.26264 11.2523 2.52272 11.3008 2.76537 11.395C3.00802 11.4891 3.2285 11.6272 3.41421 11.8012C3.59993 11.9752 3.74725 12.1817 3.84776 12.4091C3.94827 12.6364 4 12.8801 4 13.1262C4 13.6231 3.78929 14.0998 3.41421 14.4512C3.03914 14.8026 2.53043 15 2 15C1.46957 15 0.96086 14.8026 0.585787 14.4512C0.210714 14.0998 0 13.6231 0 13.1262ZM0.196 1.87383C0.169367 1.63743 0.196078 1.39842 0.274401 1.17232C0.352724 0.946216 0.480908 0.738066 0.650638 0.561375C0.820367 0.384684 1.02785 0.243399 1.25962 0.146688C1.4914 0.0499767 1.74228 0 1.996 0C2.24972 0 2.50061 0.0499767 2.73238 0.146688C2.96415 0.243399 3.17163 0.384684 3.34136 0.561375C3.51109 0.738066 3.63928 0.946216 3.7176 1.17232C3.79592 1.39842 3.82263 1.63743 3.796 1.87383L3.096 8.44535C3.06756 8.70012 2.93941 8.93599 2.73627 9.10745C2.53313 9.2789 2.26941 9.37378 1.996 9.37378C1.72259 9.37378 1.45887 9.2789 1.25573 9.10745C1.0526 8.93599 0.92444 8.70012 0.896 8.44535L0.196 1.87383Z" fill="#649865"/>
</svg>
