<svg width="33" height="32" viewBox="0 0 33 32" fill="none" xmlns="http://www.w3.org/2000/svg">
<path fill-rule="evenodd" clip-rule="evenodd" d="M32.134 0.225653C32.2485 0.319527 32.3407 0.437657 32.404 0.571513C32.4673 0.705368 32.5001 0.851609 32.5 0.999676V29.0005C32.4999 29.2316 32.4197 29.4555 32.2731 29.6342C32.1265 29.8129 31.9226 29.9352 31.696 29.9805L21.696 31.9806C21.5666 32.0064 21.4334 32.0064 21.304 31.9806L11.5 30.0205L1.696 31.9806C1.55098 32.0096 1.40133 32.0061 1.25784 31.9702C1.11435 31.9344 0.980592 31.8672 0.866199 31.7735C0.751805 31.6798 0.659627 31.5618 0.596304 31.4282C0.53298 31.2945 0.500089 31.1485 0.5 31.0006V2.99974C0.50014 2.76864 0.580312 2.54472 0.726887 2.36605C0.873461 2.18739 1.07739 2.065 1.304 2.01971L11.304 0.0196468C11.4334 -0.00621545 11.5666 -0.00621545 11.696 0.0196468L21.5 1.97971L31.304 0.0196468C31.449 -0.00952244 31.5986 -0.00617531 31.7421 0.0294471C31.8857 0.0650695 32.0195 0.13208 32.134 0.225653ZM20.5 3.81976L12.5 2.21971V28.1805L20.5 29.7805V3.81976ZM22.5 29.7805L30.5 28.1805V2.21971L22.5 3.81976V29.7805ZM10.5 28.1805V2.21971L2.5 3.81976V29.7805L10.5 28.1805Z" fill="black"/>
</svg>
