<svg width="216" height="27" viewBox="0 0 216 27" fill="none" xmlns="http://www.w3.org/2000/svg">
<rect x="0.5" y="0.5" width="215" height="26" rx="4.5" fill="#F5F4F4" stroke="black"/>
<path d="M178 19.1262C178 18.8801 178.052 18.6364 178.152 18.4091C178.253 18.1817 178.4 17.9752 178.586 17.8012C178.772 17.6272 178.992 17.4891 179.235 17.395C179.477 17.3008 179.737 17.2523 180 17.2523C180.263 17.2523 180.523 17.3008 180.765 17.395C181.008 17.4891 181.228 17.6272 181.414 17.8012C181.6 17.9752 181.747 18.1817 181.848 18.4091C181.948 18.6364 182 18.8801 182 19.1262C182 19.6231 181.789 20.0998 181.414 20.4512C181.039 20.8026 180.53 21 180 21C179.47 21 178.961 20.8026 178.586 20.4512C178.211 20.0998 178 19.6231 178 19.1262ZM178.196 7.87383C178.169 7.63743 178.196 7.39842 178.274 7.17232C178.353 6.94622 178.481 6.73807 178.651 6.56138C178.82 6.38468 179.028 6.2434 179.26 6.14669C179.491 6.04998 179.742 6 179.996 6C180.25 6 180.501 6.04998 180.732 6.14669C180.964 6.2434 181.172 6.38468 181.341 6.56138C181.511 6.73807 181.639 6.94622 181.718 7.17232C181.796 7.39842 181.823 7.63743 181.796 7.87383L181.096 14.4453C181.068 14.7001 180.939 14.936 180.736 15.1074C180.533 15.2789 180.269 15.3738 179.996 15.3738C179.723 15.3738 179.459 15.2789 179.256 15.1074C179.053 14.936 178.924 14.7001 178.896 14.4453L178.196 7.87383Z" fill="#649865"/>
<path d="M103 19.1262C103 18.8801 103.052 18.6364 103.152 18.4091C103.253 18.1817 103.4 17.9752 103.586 17.8012C103.772 17.6272 103.992 17.4891 104.235 17.395C104.477 17.3008 104.737 17.2523 105 17.2523C105.263 17.2523 105.523 17.3008 105.765 17.395C106.008 17.4891 106.228 17.6272 106.414 17.8012C106.6 17.9752 106.747 18.1817 106.848 18.4091C106.948 18.6364 107 18.8801 107 19.1262C107 19.6231 106.789 20.0998 106.414 20.4512C106.039 20.8026 105.53 21 105 21C104.47 21 103.961 20.8026 103.586 20.4512C103.211 20.0998 103 19.6231 103 19.1262ZM103.196 7.87383C103.169 7.63743 103.196 7.39842 103.274 7.17232C103.353 6.94622 103.481 6.73807 103.651 6.56138C103.82 6.38468 104.028 6.2434 104.26 6.14669C104.491 6.04998 104.742 6 104.996 6C105.25 6 105.501 6.04998 105.732 6.14669C105.964 6.2434 106.172 6.38468 106.341 6.56138C106.511 6.73807 106.639 6.94622 106.718 7.17232C106.796 7.39842 106.823 7.63743 106.796 7.87383L106.096 14.4453C106.068 14.7001 105.939 14.936 105.736 15.1074C105.533 15.2789 105.269 15.3738 104.996 15.3738C104.723 15.3738 104.459 15.2789 104.256 15.1074C104.053 14.936 103.924 14.7001 103.896 14.4453L103.196 7.87383Z" fill="#FFA800"/>
<path d="M108 19.1262C108 18.8801 108.052 18.6364 108.152 18.4091C108.253 18.1817 108.4 17.9752 108.586 17.8012C108.772 17.6272 108.992 17.4891 109.235 17.395C109.477 17.3008 109.737 17.2523 110 17.2523C110.263 17.2523 110.523 17.3008 110.765 17.395C111.008 17.4891 111.228 17.6272 111.414 17.8012C111.6 17.9752 111.747 18.1817 111.848 18.4091C111.948 18.6364 112 18.8801 112 19.1262C112 19.6231 111.789 20.0998 111.414 20.4512C111.039 20.8026 110.53 21 110 21C109.47 21 108.961 20.8026 108.586 20.4512C108.211 20.0998 108 19.6231 108 19.1262ZM108.196 7.87383C108.169 7.63743 108.196 7.39842 108.274 7.17232C108.353 6.94622 108.481 6.73807 108.651 6.56138C108.82 6.38468 109.028 6.2434 109.26 6.14669C109.491 6.04998 109.742 6 109.996 6C110.25 6 110.501 6.04998 110.732 6.14669C110.964 6.2434 111.172 6.38468 111.341 6.56138C111.511 6.73807 111.639 6.94622 111.718 7.17232C111.796 7.39842 111.823 7.63743 111.796 7.87383L111.096 14.4453C111.068 14.7001 110.939 14.936 110.736 15.1074C110.533 15.2789 110.269 15.3738 109.996 15.3738C109.723 15.3738 109.459 15.2789 109.256 15.1074C109.053 14.936 108.924 14.7001 108.896 14.4453L108.196 7.87383Z" fill="#FFA800"/>
<path d="M27 19.1262C27 18.8801 27.0517 18.6364 27.1522 18.4091C27.2528 18.1817 27.4001 17.9752 27.5858 17.8012C27.7715 17.6272 27.992 17.4891 28.2346 17.395C28.4773 17.3008 28.7374 17.2523 29 17.2523C29.2626 17.2523 29.5227 17.3008 29.7654 17.395C30.008 17.4891 30.2285 17.6272 30.4142 17.8012C30.5999 17.9752 30.7472 18.1817 30.8478 18.4091C30.9483 18.6364 31 18.8801 31 19.1262C31 19.6231 30.7893 20.0998 30.4142 20.4512C30.0391 20.8026 29.5304 21 29 21C28.4696 21 27.9609 20.8026 27.5858 20.4512C27.2107 20.0998 27 19.6231 27 19.1262ZM27.196 7.87383C27.1694 7.63743 27.1961 7.39842 27.2744 7.17232C27.3527 6.94622 27.4809 6.73807 27.6506 6.56138C27.8204 6.38468 28.0278 6.2434 28.2596 6.14669C28.4914 6.04998 28.7423 6 28.996 6C29.2497 6 29.5006 6.04998 29.7324 6.14669C29.9642 6.2434 30.1716 6.38468 30.3414 6.56138C30.5111 6.73807 30.6393 6.94622 30.7176 7.17232C30.7959 7.39842 30.8226 7.63743 30.796 7.87383L30.096 14.4453C30.0676 14.7001 29.9394 14.936 29.7363 15.1074C29.5331 15.2789 29.2694 15.3738 28.996 15.3738C28.7226 15.3738 28.4589 15.2789 28.2557 15.1074C28.0526 14.936 27.9244 14.7001 27.896 14.4453L27.196 7.87383Z" fill="#B64747"/>
<path d="M32 19.1262C32 18.8801 32.0517 18.6364 32.1522 18.4091C32.2528 18.1817 32.4001 17.9752 32.5858 17.8012C32.7715 17.6272 32.992 17.4891 33.2346 17.395C33.4773 17.3008 33.7374 17.2523 34 17.2523C34.2626 17.2523 34.5227 17.3008 34.7654 17.395C35.008 17.4891 35.2285 17.6272 35.4142 17.8012C35.5999 17.9752 35.7472 18.1817 35.8478 18.4091C35.9483 18.6364 36 18.8801 36 19.1262C36 19.6231 35.7893 20.0998 35.4142 20.4512C35.0391 20.8026 34.5304 21 34 21C33.4696 21 32.9609 20.8026 32.5858 20.4512C32.2107 20.0998 32 19.6231 32 19.1262ZM32.196 7.87383C32.1694 7.63743 32.1961 7.39842 32.2744 7.17232C32.3527 6.94622 32.4809 6.73807 32.6506 6.56138C32.8204 6.38468 33.0278 6.2434 33.2596 6.14669C33.4914 6.04998 33.7423 6 33.996 6C34.2497 6 34.5006 6.04998 34.7324 6.14669C34.9642 6.2434 35.1716 6.38468 35.3414 6.56138C35.5111 6.73807 35.6393 6.94622 35.7176 7.17232C35.7959 7.39842 35.8226 7.63743 35.796 7.87383L35.096 14.4453C35.0676 14.7001 34.9394 14.936 34.7363 15.1074C34.5331 15.2789 34.2694 15.3738 33.996 15.3738C33.7226 15.3738 33.4589 15.2789 33.2557 15.1074C33.0526 14.936 32.9244 14.7001 32.896 14.4453L32.196 7.87383Z" fill="#B64747"/>
<path d="M37 19.1262C37 18.8801 37.0517 18.6364 37.1522 18.4091C37.2528 18.1817 37.4001 17.9752 37.5858 17.8012C37.7715 17.6272 37.992 17.4891 38.2346 17.395C38.4773 17.3008 38.7374 17.2523 39 17.2523C39.2626 17.2523 39.5227 17.3008 39.7654 17.395C40.008 17.4891 40.2285 17.6272 40.4142 17.8012C40.5999 17.9752 40.7472 18.1817 40.8478 18.4091C40.9483 18.6364 41 18.8801 41 19.1262C41 19.6231 40.7893 20.0998 40.4142 20.4512C40.0391 20.8026 39.5304 21 39 21C38.4696 21 37.9609 20.8026 37.5858 20.4512C37.2107 20.0998 37 19.6231 37 19.1262ZM37.196 7.87383C37.1694 7.63743 37.1961 7.39842 37.2744 7.17232C37.3527 6.94622 37.4809 6.73807 37.6506 6.56138C37.8204 6.38468 38.0278 6.2434 38.2596 6.14669C38.4914 6.04998 38.7423 6 38.996 6C39.2497 6 39.5006 6.04998 39.7324 6.14669C39.9642 6.2434 40.1716 6.38468 40.3414 6.56138C40.5111 6.73807 40.6393 6.94622 40.7176 7.17232C40.7959 7.39842 40.8226 7.63743 40.796 7.87383L40.096 14.4453C40.0676 14.7001 39.9394 14.936 39.7363 15.1074C39.5331 15.2789 39.2694 15.3738 38.996 15.3738C38.7226 15.3738 38.4589 15.2789 38.2557 15.1074C38.0526 14.936 37.9244 14.7001 37.896 14.4453L37.196 7.87383Z" fill="#B64747"/>
<line x1="68.5" y1="2.18557e-08" x2="68.5" y2="26" stroke="black"/>
<line x1="143.5" y1="2.18557e-08" x2="143.5" y2="26" stroke="black"/>
</svg>
