<svg width="9" height="15" viewBox="0 0 9 15" fill="none" xmlns="http://www.w3.org/2000/svg">
<path d="M0 13.1262C-7.82739e-09 12.8801 0.0517313 12.6364 0.152241 12.4091C0.25275 12.1817 0.40007 11.9752 0.585787 11.8012C0.771504 11.6272 0.991982 11.4891 1.23463 11.395C1.47728 11.3008 1.73736 11.2523 2 11.2523C2.26264 11.2523 2.52272 11.3008 2.76537 11.395C3.00802 11.4891 3.2285 11.6272 3.41421 11.8012C3.59993 11.9752 3.74725 12.1817 3.84776 12.4091C3.94827 12.6364 4 12.8801 4 13.1262C4 13.6231 3.78929 14.0998 3.41421 14.4512C3.03914 14.8026 2.53043 15 2 15C1.46957 15 0.96086 14.8026 0.585787 14.4512C0.210714 14.0998 0 13.6231 0 13.1262ZM0.196 1.87383C0.169367 1.63743 0.196078 1.39842 0.274401 1.17232C0.352724 0.946216 0.480908 0.738066 0.650638 0.561375C0.820367 0.384684 1.02785 0.243399 1.25962 0.146688C1.4914 0.0499767 1.74228 0 1.996 0C2.24972 0 2.50061 0.0499767 2.73238 0.146688C2.96415 0.243399 3.17163 0.384684 3.34136 0.561375C3.51109 0.738066 3.63928 0.946216 3.7176 1.17232C3.79592 1.39842 3.82263 1.63743 3.796 1.87383L3.096 8.44535C3.06756 8.70012 2.93941 8.93599 2.73627 9.10745C2.53313 9.2789 2.26941 9.37378 1.996 9.37378C1.72259 9.37378 1.45887 9.2789 1.25573 9.10745C1.0526 8.93599 0.92444 8.70012 0.896 8.44535L0.196 1.87383Z" fill="#FFA800"/>
<path d="M5 13.1262C5 12.8801 5.05173 12.6364 5.15224 12.4091C5.25275 12.1817 5.40007 11.9752 5.58579 11.8012C5.7715 11.6272 5.99198 11.4891 6.23463 11.395C6.47728 11.3008 6.73736 11.2523 7 11.2523C7.26264 11.2523 7.52272 11.3008 7.76537 11.395C8.00802 11.4891 8.2285 11.6272 8.41421 11.8012C8.59993 11.9752 8.74725 12.1817 8.84776 12.4091C8.94827 12.6364 9 12.8801 9 13.1262C9 13.6231 8.78929 14.0998 8.41421 14.4512C8.03914 14.8026 7.53043 15 7 15C6.46957 15 5.96086 14.8026 5.58579 14.4512C5.21071 14.0998 5 13.6231 5 13.1262ZM5.196 1.87383C5.16937 1.63743 5.19608 1.39842 5.2744 1.17232C5.35272 0.946216 5.48091 0.738066 5.65064 0.561375C5.82037 0.384684 6.02785 0.243399 6.25962 0.146688C6.4914 0.0499767 6.74228 0 6.996 0C7.24972 0 7.50061 0.0499767 7.73238 0.146688C7.96415 0.243399 8.17163 0.384684 8.34136 0.561375C8.51109 0.738066 8.63928 0.946216 8.7176 1.17232C8.79592 1.39842 8.82263 1.63743 8.796 1.87383L8.096 8.44535C8.06756 8.70012 7.93941 8.93599 7.73627 9.10745C7.53313 9.2789 7.26941 9.37378 6.996 9.37378C6.72259 9.37378 6.45887 9.2789 6.25573 9.10745C6.0526 8.93599 5.92444 8.70012 5.896 8.44535L5.196 1.87383Z" fill="#FFA800"/>
</svg>
