<svg width="10" height="10" viewBox="0 0 10 10" fill="none" xmlns="http://www.w3.org/2000/svg">
<path d="M0 8.75078C-5.591e-09 8.58673 0.036951 8.42429 0.108743 8.27272C0.180536 8.12116 0.285764 7.98345 0.418419 7.86745C0.551074 7.75145 0.708559 7.65943 0.881881 7.59665C1.0552 7.53387 1.24097 7.50156 1.42857 7.50156C1.61617 7.50156 1.80194 7.53387 1.97526 7.59665C2.14858 7.65943 2.30607 7.75145 2.43872 7.86745C2.57138 7.98345 2.67661 8.12116 2.7484 8.27272C2.82019 8.42429 2.85714 8.58673 2.85714 8.75078C2.85714 9.08209 2.70663 9.39984 2.43872 9.63411C2.17081 9.86839 1.80745 10 1.42857 10C1.04969 10 0.686328 9.86839 0.418419 9.63411C0.15051 9.39984 0 9.08209 0 8.75078ZM0.14 1.24922C0.120976 1.09162 0.140056 0.932282 0.196001 0.781546C0.251945 0.630811 0.343506 0.492044 0.464741 0.37425C0.585977 0.256456 0.734178 0.162266 0.89973 0.0977918C1.06528 0.0333178 1.24449 0 1.42571 0C1.60694 0 1.78615 0.0333178 1.9517 0.0977918C2.11725 0.162266 2.26545 0.256456 2.38669 0.37425C2.50792 0.492044 2.59948 0.630811 2.65543 0.781546C2.71137 0.932282 2.73045 1.09162 2.71143 1.24922L2.21143 5.63023C2.19111 5.80008 2.09958 5.95733 1.95448 6.07163C1.80938 6.18593 1.62101 6.24919 1.42571 6.24919C1.23042 6.24919 1.04205 6.18593 0.896952 6.07163C0.751854 5.95733 0.660315 5.80008 0.64 5.63023L0.14 1.24922Z" fill="#B64747"/>
<path d="M3.57141 8.75078C3.57141 8.58673 3.60836 8.42429 3.68015 8.27272C3.75195 8.12116 3.85718 7.98345 3.98983 7.86745C4.12249 7.75145 4.27997 7.65943 4.45329 7.59665C4.62661 7.53387 4.81238 7.50156 4.99998 7.50156C5.18759 7.50156 5.37335 7.53387 5.54667 7.59665C5.72 7.65943 5.87748 7.75145 6.01013 7.86745C6.14279 7.98345 6.24802 8.12116 6.31981 8.27272C6.3916 8.42429 6.42855 8.58673 6.42855 8.75078C6.42855 9.08209 6.27804 9.39984 6.01013 9.63411C5.74223 9.86839 5.37886 10 4.99998 10C4.6211 10 4.25774 9.86839 3.98983 9.63411C3.72192 9.39984 3.57141 9.08209 3.57141 8.75078ZM3.71141 1.24922C3.69239 1.09162 3.71147 0.932282 3.76741 0.781546C3.82336 0.630811 3.91492 0.492044 4.03615 0.37425C4.15739 0.256456 4.30559 0.162266 4.47114 0.0977918C4.63669 0.0333178 4.8159 0 4.99713 0C5.17835 0 5.35756 0.0333178 5.52311 0.0977918C5.68866 0.162266 5.83686 0.256456 5.9581 0.37425C6.07933 0.492044 6.17089 0.630811 6.22684 0.781546C6.28278 0.932282 6.30186 1.09162 6.28284 1.24922L5.78284 5.63023C5.76253 5.80008 5.67099 5.95733 5.52589 6.07163C5.38079 6.18593 5.19242 6.24919 4.99713 6.24919C4.80183 6.24919 4.61346 6.18593 4.46836 6.07163C4.32327 5.95733 4.23173 5.80008 4.21141 5.63023L3.71141 1.24922Z" fill="#B64747"/>
<path d="M7.14288 8.75078C7.14288 8.58673 7.17983 8.42429 7.25163 8.27272C7.32342 8.12116 7.42865 7.98345 7.5613 7.86745C7.69396 7.75145 7.85144 7.65943 8.02476 7.59665C8.19809 7.53387 8.38385 7.50156 8.57145 7.50156C8.75906 7.50156 8.94482 7.53387 9.11815 7.59665C9.29147 7.65943 9.44895 7.75145 9.58161 7.86745C9.71426 7.98345 9.81949 8.12116 9.89128 8.27272C9.96308 8.42429 10 8.58673 10 8.75078C10 9.08209 9.84952 9.39984 9.58161 9.63411C9.3137 9.86839 8.95034 10 8.57145 10C8.19257 10 7.82921 9.86839 7.5613 9.63411C7.29339 9.39984 7.14288 9.08209 7.14288 8.75078ZM7.28288 1.24922C7.26386 1.09162 7.28294 0.932282 7.33888 0.781546C7.39483 0.630811 7.48639 0.492044 7.60762 0.37425C7.72886 0.256456 7.87706 0.162266 8.04261 0.0977918C8.20817 0.0333178 8.38737 0 8.5686 0C8.74983 0 8.92903 0.0333178 9.09458 0.0977918C9.26013 0.162266 9.40834 0.256456 9.52957 0.37425C9.65081 0.492044 9.74237 0.630811 9.79831 0.781546C9.85426 0.932282 9.87334 1.09162 9.85431 1.24922L9.35431 5.63023C9.334 5.80008 9.24246 5.95733 9.09736 6.07163C8.95226 6.18593 8.76389 6.24919 8.5686 6.24919C8.3733 6.24919 8.18493 6.18593 8.03984 6.07163C7.89474 5.95733 7.8032 5.80008 7.78288 5.63023L7.28288 1.24922Z" fill="#B64747"/>
</svg>
