<svg width="33" height="32" viewBox="0 0 33 32" fill="none" xmlns="http://www.w3.org/2000/svg">
<path d="M16.5 2C18.0155 2 19.469 2.52678 20.5406 3.46447C21.6122 4.40215 22.2143 5.67392 22.2143 7V8H10.7857V7C10.7857 5.67392 11.3878 4.40215 12.4594 3.46447C13.531 2.52678 14.9845 2 16.5 2ZM24.5 8V7C24.5 5.14348 23.6571 3.36301 22.1569 2.05025C20.6566 0.737498 18.6217 0 16.5 0C14.3783 0 12.3434 0.737498 10.8431 2.05025C9.34286 3.36301 8.5 5.14348 8.5 7V8H0.5V28C0.5 29.0609 0.981631 30.0783 1.83894 30.8284C2.69625 31.5786 3.85901 32 5.07143 32H27.9286C29.141 32 30.3038 31.5786 31.1611 30.8284C32.0184 30.0783 32.5 29.0609 32.5 28V8H24.5Z" fill="black"/>
</svg>
