<svg width="37" height="36" viewBox="0 0 37 36" fill="none" xmlns="http://www.w3.org/2000/svg">
<path fill-rule="evenodd" clip-rule="evenodd" d="M5 5.625C4.70163 5.625 4.41548 5.74353 4.2045 5.95451C3.99353 6.16548 3.875 6.45163 3.875 6.75V9C3.875 9.29837 3.99353 9.58452 4.2045 9.79549C4.41548 10.0065 4.70163 10.125 5 10.125H7.25C7.54837 10.125 7.83452 10.0065 8.04549 9.79549C8.25647 9.58452 8.375 9.29837 8.375 9V6.75C8.375 6.45163 8.25647 6.16548 8.04549 5.95451C7.83452 5.74353 7.54837 5.625 7.25 5.625H5ZM7.25 6.75H5V9H7.25V6.75Z" fill="black"/>
<path d="M11.75 7.875C11.75 7.57663 11.8685 7.29048 12.0795 7.07951C12.2905 6.86853 12.5766 6.75 12.875 6.75H33.125C33.4234 6.75 33.7095 6.86853 33.9205 7.07951C34.1315 7.29048 34.25 7.57663 34.25 7.875C34.25 8.17337 34.1315 8.45952 33.9205 8.67049C33.7095 8.88147 33.4234 9 33.125 9H12.875C12.5766 9 12.2905 8.88147 12.0795 8.67049C11.8685 8.45952 11.75 8.17337 11.75 7.875ZM12.875 15.75C12.5766 15.75 12.2905 15.8685 12.0795 16.0795C11.8685 16.2905 11.75 16.5766 11.75 16.875C11.75 17.1734 11.8685 17.4595 12.0795 17.6705C12.2905 17.8815 12.5766 18 12.875 18H33.125C33.4234 18 33.7095 17.8815 33.9205 17.6705C34.1315 17.4595 34.25 17.1734 34.25 16.875C34.25 16.5766 34.1315 16.2905 33.9205 16.0795C33.7095 15.8685 33.4234 15.75 33.125 15.75H12.875ZM12.875 24.75C12.5766 24.75 12.2905 24.8685 12.0795 25.0795C11.8685 25.2905 11.75 25.5766 11.75 25.875C11.75 26.1734 11.8685 26.4595 12.0795 26.6705C12.2905 26.8815 12.5766 27 12.875 27H33.125C33.4234 27 33.7095 26.8815 33.9205 26.6705C34.1315 26.4595 34.25 26.1734 34.25 25.875C34.25 25.5766 34.1315 25.2905 33.9205 25.0795C33.7095 24.8685 33.4234 24.75 33.125 24.75H12.875Z" fill="black"/>
<path fill-rule="evenodd" clip-rule="evenodd" d="M3.875 15.75C3.875 15.4516 3.99353 15.1655 4.2045 14.9545C4.41548 14.7435 4.70163 14.625 5 14.625H7.25C7.54837 14.625 7.83452 14.7435 8.04549 14.9545C8.25647 15.1655 8.375 15.4516 8.375 15.75V18C8.375 18.2984 8.25647 18.5845 8.04549 18.7955C7.83452 19.0065 7.54837 19.125 7.25 19.125H5C4.70163 19.125 4.41548 19.0065 4.2045 18.7955C3.99353 18.5845 3.875 18.2984 3.875 18V15.75ZM5 15.75H7.25V18H5V15.75ZM5 23.625C4.70163 23.625 4.41548 23.7435 4.2045 23.9545C3.99353 24.1655 3.875 24.4516 3.875 24.75V27C3.875 27.2984 3.99353 27.5845 4.2045 27.7955C4.41548 28.0065 4.70163 28.125 5 28.125H7.25C7.54837 28.125 7.83452 28.0065 8.04549 27.7955C8.25647 27.5845 8.375 27.2984 8.375 27V24.75C8.375 24.4516 8.25647 24.1655 8.04549 23.9545C7.83452 23.7435 7.54837 23.625 7.25 23.625H5ZM7.25 24.75H5V27H7.25V24.75Z" fill="black"/>
</svg>
