<svg width="69" height="64" viewBox="0 0 69 64" fill="none" xmlns="http://www.w3.org/2000/svg">
<g filter="url(#filter0_d_243_1131)">
<rect x="4" width="61" height="56" rx="15" fill="white"/>
</g>
<path d="M46.9985 10.8569C45.9967 10.8569 45.0314 11.0087 44.122 11.2904C43.0449 8.21233 40.1235 6 36.6775 6C32.9814 6 29.8875 8.54503 29.0291 11.9752C28.1135 11.2831 26.9867 10.8569 25.7494 10.8569C22.7321 10.8569 20.2854 13.3036 20.2854 16.321C20.2854 17.0544 20.4347 17.7513 20.697 18.39C20.1761 18.2455 19.6382 18.1423 19.0712 18.1423C15.7174 18.1423 13 20.8598 13 24.2135C13 27.5672 15.7174 30.2846 19.0712 30.2846H46.9985C52.363 30.2846 56.7123 25.9365 56.7123 20.5708C56.7123 15.2063 52.363 10.8569 46.9985 10.8569Z" fill="#E1E8ED"/>
<path d="M27.5697 36.3085L27.4325 32.1546L23.9477 34.2285C23.173 34.6474 22.6582 35.4719 22.6897 36.4129C22.7347 37.7522 23.8627 38.8122 25.2105 38.7843C26.5571 38.7564 27.6147 37.6466 27.5697 36.3085ZM25.1668 45.3666L25.0296 41.2128L21.5447 43.2867C20.77 43.7056 20.2552 44.53 20.2868 45.4711C20.3317 46.8104 21.4597 47.8704 22.8075 47.8425C24.1553 47.8145 25.2117 46.7047 25.1668 45.3666ZM19.0956 39.9512L18.9584 35.7973L15.4736 37.8712C14.6989 38.2901 14.184 39.1146 14.2156 40.0556C14.2605 41.3937 15.3886 42.4537 16.7364 42.427C18.0841 42.3991 19.1405 41.2892 19.0956 39.9512ZM40.9518 36.3085L40.8146 32.1546L37.3309 34.2285C36.555 34.6474 36.0414 35.4719 36.073 36.4129C36.1179 37.7522 37.2459 38.8122 38.5937 38.7843C39.9403 38.7564 40.9967 37.6466 40.9518 36.3085ZM33.6409 41.1654L33.5037 37.0115L30.02 39.0854C29.2442 39.5043 28.7305 40.3288 28.7621 41.2698C28.807 42.6091 29.9351 43.6691 31.2828 43.6412C32.6294 43.6133 33.6858 42.5035 33.6409 41.1654ZM39.7375 46.5809L39.5991 42.427L36.1155 44.5009C35.3396 44.9198 34.826 45.7443 34.8575 46.6853C34.9025 48.0246 36.0305 49.0846 37.3783 49.0567C38.7261 49.0288 39.7825 47.919 39.7375 46.5809ZM48.2117 39.9512L48.0745 35.7973L44.5908 37.8712C43.8149 38.2901 43.3013 39.1146 43.3329 40.0556C43.3778 41.3949 44.5058 42.4549 45.8536 42.427C47.2002 42.3991 48.2566 41.2892 48.2117 39.9512Z" fill="#5DADEC"/>
<defs>
<filter id="filter0_d_243_1131" x="0" y="0" width="69" height="64" filterUnits="userSpaceOnUse" color-interpolation-filters="sRGB">
<feFlood flood-opacity="0" result="BackgroundImageFix"/>
<feColorMatrix in="SourceAlpha" type="matrix" values="0 0 0 0 0 0 0 0 0 0 0 0 0 0 0 0 0 0 127 0" result="hardAlpha"/>
<feOffset dy="4"/>
<feGaussianBlur stdDeviation="2"/>
<feComposite in2="hardAlpha" operator="out"/>
<feColorMatrix type="matrix" values="0 0 0 0 0 0 0 0 0 0 0 0 0 0 0 0 0 0 0.25 0"/>
<feBlend mode="normal" in2="BackgroundImageFix" result="effect1_dropShadow_243_1131"/>
<feBlend mode="normal" in="SourceGraphic" in2="effect1_dropShadow_243_1131" result="shape"/>
</filter>
</defs>
</svg>
