<svg width="69" height="64" viewBox="0 0 69 64" fill="none" xmlns="http://www.w3.org/2000/svg">
<g filter="url(#filter0_d_243_1104)">
<rect x="4" width="61" height="56" rx="15" fill="white"/>
</g>
<path d="M32.1378 8.39222C32.1378 8.39222 32.1378 6 34.53 6C36.9222 6 36.9222 8.39222 36.9222 8.39222V10.7844C36.9222 10.7844 36.9222 13.1767 34.53 13.1767C32.1378 13.1767 32.1378 10.7844 32.1378 10.7844V8.39222ZM53.6678 25.1378C53.6678 25.1378 56.06 25.1378 56.06 27.53C56.06 29.9222 53.6678 29.9222 53.6678 29.9222H51.2756C51.2756 29.9222 48.8833 29.9222 48.8833 27.53C48.8833 25.1378 51.2756 25.1378 51.2756 25.1378H53.6678ZM17.7844 25.1378C17.7844 25.1378 20.1767 25.1378 20.1767 27.53C20.1767 29.9222 17.7844 29.9222 17.7844 29.9222H15.3922C15.3922 29.9222 13 29.9222 13 27.53C13 25.1378 15.3922 25.1378 15.3922 25.1378H17.7844ZM23.9097 14.7232C23.9097 14.7232 25.601 16.4145 23.9097 18.1058C22.2184 19.7971 20.5271 18.1058 20.5271 18.1058L18.8346 16.4157C18.8346 16.4157 17.1433 14.7244 18.8346 13.0319C20.5271 11.3406 22.2184 13.0319 22.2184 13.0319L23.9097 14.7232ZM48.5341 18.1058C48.5341 18.1058 46.8428 19.7971 45.1515 18.1058C43.4602 16.4145 45.1515 14.7232 45.1515 14.7232L46.8428 13.0319C46.8428 13.0319 48.5341 11.3406 50.2254 13.0319C51.9167 14.7232 50.2254 16.4145 50.2254 16.4145L48.5341 18.1058ZM23.4157 43.2242C23.4157 43.2242 21.7244 44.9155 20.0331 43.2242C18.3418 41.5329 20.0331 39.8416 20.0331 39.8416L21.7244 38.1503C21.7244 38.1503 23.4157 36.459 25.107 38.1503C26.7983 39.8416 25.107 41.5329 25.107 41.5329L23.4157 43.2242Z" fill="#FFAC33"/>
<path d="M34.53 39.4912C41.136 39.4912 46.4911 34.136 46.4911 27.5301C46.4911 20.9241 41.136 15.5689 34.53 15.5689C27.9241 15.5689 22.5689 20.9241 22.5689 27.5301C22.5689 34.136 27.9241 39.4912 34.53 39.4912Z" fill="#FFAC33"/>
<path d="M48.6166 33.7496C47.8487 33.7496 47.1095 33.8693 46.4122 34.0905C45.5893 31.6648 43.3501 29.9221 40.7103 29.9221C37.8779 29.9221 35.5072 31.9292 34.8506 34.6312C34.1497 34.0858 33.2849 33.7508 32.3375 33.7508C30.0255 33.7508 28.1512 35.6778 28.1512 38.0568C28.1512 38.6346 28.266 39.1824 28.4669 39.6871C28.0674 39.5711 27.6548 39.491 27.2206 39.491C24.6513 39.491 22.5689 41.6332 22.5689 44.2754C22.5689 46.9176 24.6513 49.0599 27.2206 49.0599H48.6178C52.7277 49.0599 56.06 45.6342 56.06 41.4048C56.06 37.1765 52.7277 33.7496 48.6166 33.7496Z" fill="#E1E8ED"/>
<defs>
<filter id="filter0_d_243_1104" x="0" y="0" width="69" height="64" filterUnits="userSpaceOnUse" color-interpolation-filters="sRGB">
<feFlood flood-opacity="0" result="BackgroundImageFix"/>
<feColorMatrix in="SourceAlpha" type="matrix" values="0 0 0 0 0 0 0 0 0 0 0 0 0 0 0 0 0 0 127 0" result="hardAlpha"/>
<feOffset dy="4"/>
<feGaussianBlur stdDeviation="2"/>
<feComposite in2="hardAlpha" operator="out"/>
<feColorMatrix type="matrix" values="0 0 0 0 0 0 0 0 0 0 0 0 0 0 0 0 0 0 0.25 0"/>
<feBlend mode="normal" in2="BackgroundImageFix" result="effect1_dropShadow_243_1104"/>
<feBlend mode="normal" in="SourceGraphic" in2="effect1_dropShadow_243_1104" result="shape"/>
</filter>
</defs>
</svg>
